<svg width="365" height="240" viewBox="0 0 365 240" fill="none" xmlns="http://www.w3.org/2000/svg">
<path d="M235.076 230C232.72 230 230.487 229.487 228.389 228.472C226.29 227.447 224.469 226.073 222.936 224.341L182.495 175.766L142.064 224.341C140.531 226.176 138.679 227.529 136.529 228.401C134.379 229.262 132.178 229.703 129.925 229.703C127.558 229.703 125.336 229.262 123.237 228.401C121.128 227.529 119.308 226.176 117.775 224.341L77.3438 175.766L34.2896 226.637L10 206.717L65.1938 141.145C66.5209 139.412 68.3214 138.028 70.5744 137.003C72.8274 135.988 75.0805 135.476 77.3438 135.476C79.8026 135.476 82.0762 136.009 84.1852 137.085C86.2839 138.151 88.0534 139.515 89.4834 141.145L129.925 189.709L170.355 141.145C171.888 139.412 173.709 138.08 175.808 137.157C177.907 136.244 180.139 135.783 182.495 135.783C184.748 135.783 186.96 136.244 189.11 137.157C191.26 138.08 193.112 139.412 194.645 141.145L235.076 189.709L275.517 141.145C276.947 139.412 278.747 138.028 280.897 137.003C283.048 135.988 285.3 135.476 287.656 135.476C290.115 135.476 292.399 135.988 294.498 137.003C296.596 138.028 298.366 139.412 299.806 141.145L355 206.717L330.711 226.637L287.656 175.766L247.225 224.341C245.693 226.073 243.892 227.447 241.845 228.472C239.788 229.487 237.534 230 235.076 230ZM235.076 104.217C232.72 104.217 230.467 103.715 228.317 102.689C226.167 101.664 224.366 100.29 222.936 98.5474L182.495 50.2908L142.064 98.5474C140.531 100.393 138.679 101.767 136.529 102.689C134.379 103.612 132.126 104.063 129.77 104.063C127.507 104.063 125.305 103.612 123.155 102.689C121.005 101.767 119.205 100.393 117.775 98.5474L77.3438 49.8294L34.2896 101.152L10 80.7805L65.1938 15.6694C66.9325 13.619 68.8358 12.1734 70.883 11.302C72.9303 10.4306 75.0805 10 77.3438 10C79.8026 10 82.107 10.4511 84.2571 11.3738C86.4073 12.2965 88.1563 13.7318 89.4834 15.6694L129.925 63.7723L170.355 15.6694C171.888 13.9265 173.709 12.604 175.808 11.6813C177.907 10.7587 180.139 10.3076 182.495 10.3076C184.748 10.3076 186.96 10.7587 189.11 11.6813C191.26 12.604 193.112 13.9265 194.645 15.6694L235.076 63.7723L275.517 15.6694C277.05 13.7318 278.871 12.2965 280.969 11.3738C283.068 10.4511 285.3 10 287.656 10C292.471 10 296.524 11.8864 299.806 15.6694L355 80.7805L330.711 101.152L287.656 49.8294L247.225 98.5474C245.785 100.598 244.016 102.054 241.917 102.915C239.818 103.786 237.534 104.217 235.076 104.217Z" fill="black"/>
</svg>
