<svg width="366" height="284" viewBox="0 0 366 284" fill="none" xmlns="http://www.w3.org/2000/svg">
<path d="M255.339 193.66C261.581 199.211 268.46 203.318 275.976 205.99C283.502 208.673 290.936 210.004 298.308 210.004C301.881 210.004 305.29 209.365 308.503 208.075C311.727 206.795 314.54 205.041 316.943 202.833C319.345 200.625 321.245 197.952 322.621 194.815C324.007 191.679 324.695 188.263 324.695 184.559C324.695 180.968 324.007 177.573 322.621 174.385C321.245 171.196 319.345 168.421 316.943 166.058C314.54 163.695 311.727 161.817 308.503 160.424C305.29 159.041 301.881 158.35 298.308 158.35C292.476 158.35 287.537 159.505 283.502 161.817C279.457 164.128 276.212 166.625 273.758 169.298C272.937 170.216 271.838 171.557 270.452 173.301C269.076 175.055 267.567 177.037 265.924 179.245C264.292 181.453 262.557 183.785 260.709 186.261C258.871 188.728 257.084 191.194 255.339 193.66ZM146.556 274V243.003H169.267C169.873 243.003 170.797 242.951 172.029 242.848C173.251 242.745 174.658 242.384 176.249 241.765C177.83 241.156 179.514 240.196 181.311 238.917C183.098 237.627 184.864 235.811 186.599 233.438L214.526 195.971C209.618 188.263 205.624 179.936 202.564 170.99C199.495 162.044 197.954 152.54 197.954 142.459V63.512C197.954 60.6331 197.441 57.8884 196.425 55.2675C195.398 52.6362 193.971 50.3765 192.123 48.4779C190.285 46.5793 188.108 45.0624 185.603 43.9274C183.098 42.8027 180.408 42.2352 177.553 42.2352C175.099 42.2352 172.337 42.9471 169.267 44.3917C166.197 45.8363 162.891 48.5501 159.37 52.564C155.838 56.5779 152.152 62.0777 148.322 69.0634C144.482 76.0594 140.519 85.0984 136.432 96.2012C135.816 97.3362 135.375 98.3577 135.128 99.2864C134.872 100.215 134.636 100.927 134.43 101.443C132.182 106.592 130.19 112.164 128.444 118.18C126.709 124.195 125.251 131.387 124.081 139.766C122.9 148.145 122.007 158.009 121.391 169.37C120.775 180.731 120.467 194.279 120.467 210.004H88.4016C88.4016 192.112 87.7342 176.593 86.4098 163.437C85.075 150.281 83.5656 139.302 81.8818 130.51C80.1979 121.719 78.6065 114.991 77.128 110.317C75.6393 105.632 74.6946 102.836 74.2839 101.907C74.1813 101.804 74.1299 101.701 74.1299 101.598V101.443C71.5734 94.3541 68.9655 87.6677 66.3063 81.4043C65.1769 78.7318 64.0063 76.0284 62.7743 73.3043C61.5524 70.5802 60.2999 68.0109 59.0164 65.5963C57.7433 63.1818 56.4598 60.9943 55.1866 59.0441C53.9032 57.0939 52.6506 55.5461 51.4288 54.4111C49.6834 52.3577 48.0714 50.5622 46.5929 49.0144C45.1042 47.477 43.5948 46.2181 42.065 45.2378C40.5351 44.2679 38.8616 43.5147 37.0751 42.9987C35.2885 42.4931 33.1632 42.2352 30.7093 42.2352C27.6394 42.2352 24.8774 42.7511 22.4235 43.7726L10 14.9426C13.3677 13.3948 16.7764 12.1876 20.1955 11.3105C23.6248 10.4437 27.126 10 30.7093 10C36.9519 10 42.373 10.7739 46.9727 12.3217C51.5725 13.8591 55.6385 15.8403 59.1705 18.2548C62.7024 20.6694 65.7415 23.2696 68.2981 26.0453C70.8547 28.821 73.1545 31.442 75.208 33.9081C77.7646 36.5806 80.5779 40.4397 83.6478 45.4752C86.307 49.7883 89.3976 55.6699 92.9295 63.1302C96.4615 70.5802 100.271 80.1661 104.357 91.888C105.897 87.5645 107.735 82.5291 109.881 76.7713C112.027 71.0136 114.614 65.1114 117.633 59.0441C120.651 52.9768 124.101 47.0126 127.993 41.1517C131.874 35.2908 136.278 30.0489 141.186 25.4262C146.094 20.7932 151.566 17.0682 157.604 14.2409C163.641 11.424 170.284 10 177.553 10C184.812 10 191.609 11.424 197.954 14.2409C204.3 17.0682 209.844 20.9274 214.608 25.808C219.362 30.699 223.12 36.3742 225.882 42.8543C228.644 49.324 230.03 56.2168 230.03 63.512V142.459C230.03 151.302 231.765 159.629 235.246 167.44C238.1 163.643 240.995 159.887 243.911 156.183C246.827 152.489 249.209 149.61 251.047 147.557C257.382 140.767 264.6 135.422 272.68 131.511C280.761 127.611 289.303 125.661 298.308 125.661C306.285 125.661 313.77 127.229 320.783 130.356C327.785 133.492 333.905 137.764 339.12 143.161C344.336 148.557 348.454 154.8 351.472 161.889C354.491 168.988 356 176.541 356 184.559C356 192.473 354.491 199.954 351.472 207.002C348.454 214.039 344.336 220.178 339.12 225.42C333.905 230.662 327.785 234.831 320.783 237.916C313.77 241.001 306.285 242.539 298.308 242.539C287.465 242.539 276.715 240.537 266.078 236.523C255.441 232.519 245.574 226.813 236.467 219.415L211.456 252.414C207.975 257.036 204.371 260.761 200.644 263.589C196.907 266.416 193.201 268.603 189.515 270.141C185.839 271.689 182.276 272.71 178.857 273.226C175.428 273.742 172.337 274 169.575 274H146.556Z" fill="black"/>
</svg>
