<svg width="326" height="283" viewBox="0 0 326 283" fill="none" xmlns="http://www.w3.org/2000/svg">
<path d="M247.213 136.13C242.097 136.13 237.34 137.126 232.943 139.118C228.535 141.12 224.702 143.8 221.425 147.178C218.147 150.556 215.558 154.489 213.668 158.997C211.777 163.494 210.832 168.196 210.832 173.115C210.832 178.228 211.849 182.982 213.904 187.377C215.949 191.781 218.712 195.591 222.185 198.815C225.668 202.039 229.634 204.565 234.093 206.413C238.542 208.251 243.227 209.165 248.138 209.165C253.255 209.165 258.012 208.2 262.419 206.259C266.817 204.308 270.66 201.7 273.937 198.425C277.204 195.16 279.773 191.32 281.612 186.925C283.451 182.52 284.376 177.869 284.376 172.961C284.376 167.745 283.348 162.908 281.304 158.452C279.259 154.006 276.547 150.125 273.167 146.798C269.786 143.471 265.851 140.864 261.341 138.974C256.84 137.075 252.135 136.13 247.213 136.13ZM77.8618 73.5271C72.7452 73.5271 67.978 74.5231 63.5806 76.515C59.1831 78.5172 55.3408 81.1971 52.0633 84.5753C48.7858 87.9534 46.2067 91.8859 44.3162 96.3935C42.4155 100.891 41.4703 105.593 41.4703 110.502C41.4703 115.625 42.4976 120.379 44.5422 124.774C46.5868 129.179 49.3509 132.988 52.8339 136.212C56.3169 139.426 60.2824 141.962 64.7312 143.8C69.1902 145.648 73.8651 146.562 78.7865 146.562C83.9031 146.562 88.6604 145.597 93.0578 143.646C97.4655 141.705 101.298 139.097 104.575 135.822C107.853 132.546 110.411 128.717 112.25 124.312C114.099 119.917 115.014 115.266 115.014 110.347C115.014 105.131 113.997 100.306 111.952 95.8494C109.897 91.4034 107.185 87.5119 103.815 84.1954C100.435 80.8687 96.4892 78.2605 91.989 76.361C87.4786 74.4717 82.773 73.5271 77.8618 73.5271ZM181.499 156.234C183.348 148.862 186.359 142.034 190.561 135.75C194.753 129.456 199.746 124.004 205.531 119.404C211.315 114.804 217.767 111.2 224.877 108.592C231.987 105.984 239.384 104.68 247.059 104.68H247.984C258.217 104.782 267.536 106.774 275.93 110.656C284.324 114.547 291.485 119.66 297.424 126.006C303.363 132.351 307.945 139.611 311.171 147.794C314.387 155.978 316 164.418 316 173.115C316 180.374 314.829 187.582 312.476 194.749C310.113 201.906 306.383 208.713 301.267 215.151C294.506 224.875 286.42 233.11 277.009 239.856C267.587 246.612 257.478 252.208 246.679 256.664C235.881 261.11 224.672 264.539 213.051 266.942C201.431 269.345 190.047 271.059 178.889 272.086C171.831 272.692 164.865 273 158.012 273C133.241 273 109.569 269.221 86.996 261.644C64.4233 254.076 43.4121 242.72 23.9731 227.586L43.3197 203.035C51.7035 209.678 60.488 215.439 69.6424 220.295C78.8071 225.152 88.2286 229.146 97.8968 232.268C107.575 235.389 117.428 237.71 127.456 239.25C137.484 240.78 147.676 241.55 158.012 241.55C167.937 241.55 177.841 240.882 187.725 239.548C197.599 238.223 207.503 236.282 217.428 233.726C211.387 230.656 206.013 226.918 201.308 222.523C196.602 218.119 192.636 213.293 189.41 208.015C186.184 202.748 183.728 197.1 182.043 191.063C180.348 185.025 179.506 178.896 179.506 172.653C179.506 167.026 180.173 161.553 181.499 156.234ZM144.809 126.468C142.96 133.933 139.919 140.833 135.665 147.178C131.422 153.524 126.326 159.017 120.398 163.679C114.459 168.33 107.904 171.965 100.743 174.573C93.5712 177.181 86.1019 178.485 78.3242 178.485C68.091 178.485 58.7722 176.544 50.3781 172.653C41.9839 168.761 34.7919 163.596 28.802 157.148C22.8223 150.71 18.1887 143.369 14.9112 135.134C11.6337 126.899 10 118.438 10 109.742C10 102.369 11.2023 95.1101 13.6064 87.9534C16.0106 80.7865 19.8225 73.9891 25.0418 67.5409C31.8023 57.8275 39.8572 49.5928 49.2274 42.8366C58.5976 36.0906 68.6765 30.5151 79.4748 26.1102C90.2731 21.7156 101.482 18.3169 113.103 15.904C124.713 13.5013 136.158 11.8379 147.419 10.9241C154.477 10.308 161.546 10 168.605 10C193.273 10 216.843 13.7376 239.313 21.2023C261.783 28.6671 282.68 39.9718 302.027 55.1168L282.68 79.9752C265.8 66.4627 247.676 56.6776 228.329 50.5888C208.983 44.5 188.968 41.4606 168.296 41.4606C148.642 41.4606 128.884 44.0174 109.034 49.1308C115.065 52.2009 120.418 55.9075 125.072 60.2507C129.737 64.6043 133.672 69.4406 136.898 74.749C140.124 80.078 142.549 85.756 144.193 91.7832C145.827 97.8207 146.648 103.961 146.648 110.204C146.648 115.728 146.032 121.149 144.809 126.468Z" fill="black"/>
</svg>
