<svg width="322" height="330" viewBox="0 0 322 330" fill="none" xmlns="http://www.w3.org/2000/svg">
<path d="M269.235 235.316L312 277.576L269.235 320L258.312 308.625L273.847 292.797H253.381C246.205 292.797 239.411 291.46 232.997 288.796C226.594 286.133 221.004 282.471 216.227 277.812C211.46 273.143 207.692 267.692 204.923 261.439C202.154 255.196 200.774 248.481 200.774 241.312H201.073V62.4106C201.073 59.644 200.537 57.0008 199.467 54.4914C198.386 51.9819 196.872 49.7809 194.926 47.8783C192.97 45.9859 190.716 44.474 188.153 43.353C185.589 42.2217 182.871 41.656 179.999 41.656C177.024 41.656 174.254 42.2217 171.691 43.353C169.128 44.474 166.873 45.9859 164.927 47.8783C162.971 49.7809 161.458 51.9819 160.387 54.4914C159.306 57.0008 158.771 59.644 158.771 62.4106V252.224H127.691V62.4106C127.691 59.644 127.124 57.0008 126.002 54.4914C124.87 51.9819 123.305 49.7809 121.308 47.8783C119.311 45.9859 116.994 44.474 114.38 43.353C111.765 42.2217 109.026 41.656 106.154 41.656C103.282 41.656 100.585 42.2217 98.0726 43.353C95.5607 44.474 93.3572 45.9859 91.463 47.8783C89.5584 49.7809 88.0761 51.9819 86.9952 54.4914C85.9245 57.0008 85.379 59.644 85.379 62.4106V252.224H54.309V62.4106C54.1031 59.644 53.4031 57.0008 52.2295 54.4914C51.0456 51.9819 49.4806 49.7809 47.5349 47.8783C45.5891 45.9859 43.3551 44.474 40.8432 43.353C38.3312 42.2217 35.6341 41.656 32.7722 41.656C31.022 41.656 29.4056 41.8412 27.9231 42.2012C26.4304 42.5612 25.0202 42.993 23.6922 43.5073L10 15.2245C16.9696 11.738 24.5569 10 32.7722 10C39.9477 10 46.6599 11.3061 52.9192 13.9184C59.1784 16.5307 64.6654 20.2436 69.3805 25.0568C74.1985 20.2436 79.7683 16.5307 86.0791 13.9184C92.3795 11.3061 99.0815 10 106.154 10C113.33 10 120.124 11.3061 126.538 13.9184C132.952 16.5307 138.511 20.2436 143.226 25.0568C148.054 20.2436 153.562 16.5307 159.769 13.9184C165.977 11.3061 172.72 10 179.999 10C187.277 10 194.082 11.3575 200.383 14.0727C206.693 16.7878 212.181 20.5211 216.844 25.2932C221.508 30.055 225.183 35.619 227.849 41.9646C230.516 48.3205 231.844 55.129 231.844 62.4106V241.312C231.844 244.284 232.441 247 233.615 249.458C234.799 251.916 236.384 254.065 238.381 255.906C240.389 257.757 242.664 259.187 245.227 260.215C247.791 261.233 250.508 261.748 253.381 261.748H273.847L258.312 246.228L269.235 235.316Z" fill="black"/>
</svg>
