<svg width="290" height="275" viewBox="0 0 290 275" fill="none" xmlns="http://www.w3.org/2000/svg">
<path d="M108.234 220.27C114.274 219.857 120.313 219.548 126.353 219.341C132.382 219.135 138.524 219.031 144.769 219.031C151.106 219.031 157.351 219.135 163.493 219.341C169.636 219.548 175.716 219.857 181.756 220.27V54.7399C175.716 54.9464 169.636 55.122 163.493 55.2769C157.351 55.4317 151.106 55.5039 144.769 55.5039C138.524 55.5039 132.382 55.4317 126.353 55.2769C120.313 55.122 114.274 54.9464 108.234 54.7399V220.27ZM212.456 222.892C224.844 224.017 236.584 225.535 247.687 227.445C258.79 229.344 269.554 231.636 280 234.309L272.471 265C253.849 260.375 233.769 256.876 212.23 254.512C190.681 252.148 168.198 250.971 144.769 250.971C121.638 250.971 99.3084 252.148 77.7697 254.512C56.2206 256.876 36.1404 260.375 17.5187 265L10 234.309C20.2301 231.636 30.9739 229.344 42.2312 227.445C53.4885 225.535 65.1565 224.017 77.2252 222.892V52.1181C52.9748 49.4444 30.563 45.635 10 40.7006L17.5187 9.99998C36.1404 14.6247 56.1693 18.1242 77.6156 20.4882C99.0517 22.8522 121.433 24.0394 144.769 24.0394C168.198 24.0394 190.609 22.8522 211.994 20.4882C233.379 18.1242 253.387 14.6247 272.019 9.99998L279.692 40.7006C269.451 43.1678 258.79 45.3563 247.687 47.2557C236.584 49.1552 224.844 50.7761 212.456 52.1181V222.892Z" fill="black"/>
</svg>
