<svg width="272" height="314" viewBox="0 0 272 314" fill="none" xmlns="http://www.w3.org/2000/svg">
<path d="M68.154 220.082C72.2554 220.082 75.9234 219.321 79.1539 217.779C82.3844 216.246 85.1269 214.251 87.3846 211.783C89.6391 209.325 91.3584 206.507 92.5381 203.34C93.7169 200.162 94.3078 196.933 94.3078 193.652C94.3078 190.475 93.7694 187.328 92.6926 184.201C91.6157 181.075 89.9995 178.288 87.8458 175.83C85.6921 173.362 82.9733 171.367 79.6924 169.835C76.4083 168.292 72.5622 167.531 68.154 167.531C63.8457 167.531 60.05 168.292 56.769 169.835C53.486 171.367 50.7425 173.393 48.5384 175.902C46.3322 178.411 44.6655 181.26 43.5382 184.427C42.4089 187.605 41.8458 190.886 41.8458 194.269C41.8458 197.55 42.3842 200.717 43.461 203.792C44.5389 206.867 46.1541 209.613 48.3078 212.02C50.4615 214.426 53.1782 216.37 56.4612 217.861C59.7422 219.342 63.6398 220.082 68.154 220.082ZM232 256.817L262 266.659C260.154 272.49 257.435 277.714 253.847 282.332C250.255 286.939 246.128 290.857 241.461 294.086C236.793 297.315 231.717 299.773 226.231 301.46C220.743 303.157 215.178 304 209.538 304C205.434 304 201.385 303.558 197.385 302.694C193.384 301.82 189.434 300.411 185.539 298.467C180.717 296.112 176.461 293.14 172.769 289.551C169.076 285.962 165.923 282.023 163.307 277.714C160.692 273.415 158.717 268.829 157.385 263.964C156.051 259.1 155.384 254.102 155.384 248.98C155.384 244.877 155.819 240.835 156.692 236.835C157.563 232.845 158.973 228.896 160.923 225.008L203.693 116.964C205.538 113.272 206.896 109.539 207.769 105.744C208.639 101.96 209.077 98.1136 209.077 94.216C209.077 88.0661 208.025 82.1014 205.923 76.3115C203.819 70.5216 200.846 65.2973 197 60.6386C193.154 55.9799 188.512 52.0309 183.077 48.8017C177.64 45.5725 171.64 43.4026 165.077 42.2714C163.64 42.0657 162.281 41.9114 161 41.8086C159.717 41.7057 158.358 41.6543 156.924 41.6543C149.846 41.6543 143.128 43.0118 136.77 45.7268C130.408 48.4417 124.819 52.1646 120 56.8747C115.178 61.5848 111.332 67.1176 108.461 73.4732C105.589 79.8287 104.154 86.6366 104.154 93.9075C104.154 95.0387 104.435 97.116 105 100.14C105.563 103.163 106.332 106.876 107.308 111.277C108.281 115.679 109.435 120.656 110.769 126.189C112.101 131.722 113.512 137.532 115 143.631C116.486 149.729 118.024 156.023 119.615 162.533C121.204 169.043 122.819 175.419 124.461 181.661C124.974 183.718 125.332 185.867 125.538 188.119C125.743 190.372 125.846 192.48 125.846 194.424C125.846 202.723 124.153 210.323 120.769 217.244C117.385 224.155 112.923 230.15 107.384 235.22C101.847 240.301 95.4855 244.239 88.308 247.057C81.1275 249.875 73.7935 251.284 66.3071 251.284C59.2305 251.284 52.2043 249.927 45.2307 247.212C38.255 244.497 31.8465 240.064 26.0001 233.914C20.4615 228.083 16.4085 221.8 13.8461 215.095C11.2807 208.379 10 201.592 10 194.732C10 187.256 11.4083 180.005 14.2312 172.981C17.0499 165.968 20.9999 159.715 26.0773 154.234C31.1536 148.752 37.2306 144.371 44.3072 141.091C51.3849 137.81 59.1276 136.175 67.5384 136.175C69.6921 136.175 71.8961 136.308 74.1538 136.555C76.4083 136.812 78.7164 137.203 81.077 137.707C78.7164 128.287 76.7687 119.803 75.2306 112.275C73.6926 104.747 72.9236 97.5994 72.9236 90.8325C72.9236 84.4872 73.7163 78.2861 75.3078 72.2391C76.8963 66.1921 79.5379 59.7953 83.2307 53.0284C86.6156 46.8786 90.717 41.2738 95.538 36.2038C100.358 31.1338 105.692 26.7527 111.538 23.0607C117.385 19.3687 123.615 16.4275 130.23 14.2267C136.846 12.0259 143.639 10.6685 150.615 10.1543C151.639 10.0514 152.615 10 153.539 10C154.461 10 155.435 10 156.461 10C168.358 10 179.435 12.3552 189.692 17.0652C199.947 21.7856 208.846 28.0793 216.385 35.9672C223.923 43.8653 229.846 52.9565 234.154 63.2508C238.461 73.5451 240.616 84.2302 240.616 95.2958C240.616 101.137 239.948 106.999 238.615 112.892C237.281 118.784 235.231 124.646 232.461 130.488L189.231 238.995C187.281 242.779 186.308 246.471 186.308 250.06C186.308 253.331 187 256.354 188.384 259.12C189.769 261.887 191.615 264.293 193.923 266.35C196.231 268.397 198.871 269.98 201.846 271.112C204.82 272.233 207.847 272.798 210.923 272.798C215.231 272.798 219.385 271.574 223.384 269.117C227.385 266.659 230.255 262.555 232 256.817Z" fill="black"/>
</svg>
