<svg width="304" height="265" viewBox="0 0 304 265" fill="none" xmlns="http://www.w3.org/2000/svg">
<path d="M10 255V223.691H294V255H10ZM224.577 150.769H294V181.78H177.522V150.461H178.589C183.194 148.006 187.409 144.986 191.235 141.411C195.07 137.826 198.342 133.83 201.049 129.434C203.757 125.037 205.849 120.271 207.326 115.155C208.813 110.04 209.552 104.668 209.552 99.0385C209.552 91.1598 208.024 83.7127 204.957 76.7071C201.89 69.6913 197.747 63.5792 192.537 58.361C187.327 53.1427 181.225 48.9928 174.23 45.9215C167.225 42.8501 159.738 41.3197 151.769 41.3197C143.903 41.3197 136.467 42.8501 129.473 45.9215C122.468 48.9928 116.365 53.1427 111.155 58.361C105.945 63.5792 101.802 69.6913 98.7455 76.7071C95.679 83.7127 94.1405 91.1598 94.1405 99.0385C94.1405 104.668 94.9098 110.04 96.4379 115.155C97.9763 120.271 100.12 125.037 102.879 129.434C105.638 133.83 108.93 137.826 112.765 141.411C116.601 144.986 120.806 148.006 125.411 150.461H126.18V181.78H10V150.769H79.1257C73.9156 143.198 69.8954 135.114 67.0955 126.516C64.2751 117.919 62.8803 108.766 62.8803 99.0385C62.8803 90.8516 63.9468 82.973 66.0903 75.4024C68.2441 67.8319 71.2286 60.7339 75.0643 54.1392C78.8898 47.5342 83.5154 41.5251 88.9306 36.1014C94.3458 30.6777 100.346 26.0451 106.94 22.2136C113.535 18.3718 120.601 15.3723 128.17 13.2255C135.729 11.0786 143.595 9.99998 151.769 9.99998C160.046 9.99998 167.994 11.0786 175.604 13.2255C183.214 15.3723 190.322 18.3718 196.906 22.2136C203.501 26.0451 209.5 30.6777 214.916 36.1014C220.331 41.5251 224.956 47.5342 228.792 54.1392C232.618 60.7339 235.582 67.8319 237.674 75.4024C239.766 82.973 240.822 90.8516 240.822 99.0385C240.822 108.766 239.438 117.919 236.679 126.516C233.92 135.114 229.889 143.198 224.577 150.769Z" fill="black"/>
</svg>
