<svg width="160" height="42" viewBox="0 0 160 42" fill="none" xmlns="http://www.w3.org/2000/svg">
<defs>
<linearGradient id="paint0_linear_61_439" x1="14.109" y1="31.1567" x2="46.4107" y2="1.87254" gradientUnits="userSpaceOnUse">
<stop stop-color="#F3EFEA"/>
<stop offset="0.987199" stop-color="#383837"/>
</linearGradient>
<linearGradient id="paint1_linear_61_439" x1="80.2995" y1="28.7024" x2="101.378" y2="-25.0111" gradientUnits="userSpaceOnUse">
<stop stop-color="#F3EFEA"/>
<stop offset="0.987199" stop-color="#383837"/>
</linearGradient>
</defs>
<path d="M26.4712 36.1589L24.5127 40.647C23.7598 42.3722 21.3737 42.3722 20.6209 40.647L18.6623 36.1589C16.9194 32.1648 13.7822 28.9856 9.86894 27.2476L4.47808 24.8534C2.76414 24.0922 2.76414 21.5975 4.47808 20.8363L9.70057 18.5169C13.7145 16.7343 16.9079 13.4371 18.6211 9.30679L20.605 4.52385C21.3412 2.74889 23.7923 2.74889 24.5285 4.52384L26.5125 9.30684C28.2256 13.4371 31.4191 16.7343 35.4329 18.5169L40.6555 20.8363C42.3694 21.5975 42.3694 24.0922 40.6555 24.8534L35.2646 27.2476C31.3514 28.9856 28.2142 32.1648 26.4712 36.1589Z" fill="url(#paint0_linear_61_439)"/>
<path d="M6.38549 4.60777C3.75616 5.05672 3.50384 5.42085 3.19274 9.21533C2.88165 5.42085 2.62933 5.05672 0 4.60777C2.62933 4.15852 2.88165 3.79468 3.19274 -8.74882e-05C3.50384 3.79468 3.75616 4.15852 6.38549 4.60777Z" fill="#D7D0C4"/>
<path d="M12.4807 10.9571C10.688 11.2611 10.5159 11.5077 10.3038 14.0771C10.0917 11.5077 9.91968 11.2611 8.12695 10.9571C9.91968 10.6529 10.0917 10.4065 10.3038 7.83679C10.5159 10.4065 10.688 10.6529 12.4807 10.9571Z" fill="#D7D0C4"/>
<path d="M65.2618 31L64.3741 28.0115H57.48L56.5923 31H50.8521L57.6871 10.2878H64.1374L70.9725 31H65.2618ZM58.841 23.4549H63.0131L60.9123 16.4127L58.841 23.4549ZM76.8315 20.5256C76.8315 20.8017 77.0781 21.0286 77.5712 21.2061C78.0841 21.3836 78.6956 21.5513 79.4057 21.7091C80.1356 21.8669 80.8556 22.0938 81.5657 22.3897C82.2956 22.6658 82.9071 23.1491 83.4002 23.8395C83.9131 24.5299 84.1695 25.3979 84.1695 26.4433C84.1695 28.1397 83.5383 29.3923 82.2758 30.2011C81.0134 31.0099 79.5142 31.4142 77.7783 31.4142C74.4644 31.4142 72.2551 30.2406 71.1504 27.8932L75.4408 25.7332C75.8156 26.8181 76.5849 27.3606 77.7488 27.3606C78.6364 27.3606 79.0802 27.0943 79.0802 26.5617C79.0802 26.2855 78.8337 26.0587 78.3405 25.8811C77.8474 25.7036 77.2457 25.5261 76.5356 25.3485C75.8255 25.171 75.1153 24.9343 74.4052 24.6384C73.6951 24.3425 73.0934 23.8691 72.6003 23.2181C72.1072 22.5475 71.8606 21.7288 71.8606 20.7623C71.8606 19.1842 72.4425 17.9612 73.6063 17.0933C74.7701 16.2253 76.1707 15.7913 77.8079 15.7913C80.7274 15.7913 82.7591 16.9354 83.9032 19.2237L79.7608 21.0877C79.3268 20.2395 78.7153 19.8154 77.9263 19.8154C77.1964 19.8154 76.8315 20.0521 76.8315 20.5256ZM94.8224 20.9102H91.7452V25.2006C91.7452 25.8515 91.9819 26.2559 92.4553 26.4137C92.9287 26.5715 93.7178 26.6209 94.8224 26.5617V31C91.8833 31.3551 89.812 31.0888 88.6088 30.2011C87.4252 29.2937 86.8334 27.6663 86.8334 25.3189V20.9102H84.6143V16.2056H86.8334V13.5426L91.7452 12.0632V16.2056H94.8224V20.9102ZM101.212 25.4077C101.705 26.611 102.809 27.2126 104.525 27.2126C105.591 27.2126 106.488 26.8674 107.218 26.177L110.769 28.6625C109.309 30.497 107.188 31.4142 104.407 31.4142C101.902 31.4142 99.8899 30.6844 98.371 29.2247C96.8718 27.7452 96.1222 25.8811 96.1222 23.6324C96.1222 21.4034 96.862 19.5393 98.3414 18.0401C99.8209 16.5409 101.705 15.7913 103.993 15.7913C106.202 15.7913 108.027 16.5311 109.467 18.0105C110.907 19.49 111.627 21.3442 111.627 23.5732C111.627 24.2242 111.558 24.8357 111.42 25.4077H101.212ZM101.152 22.005H106.833C106.439 20.6242 105.512 19.9338 104.052 19.9338C102.533 19.9338 101.567 20.6242 101.152 22.005ZM118.648 18.9574C118.924 17.9908 119.476 17.2412 120.305 16.7086C121.133 16.176 122.06 15.9097 123.086 15.9097V21.354C121.962 21.1765 120.936 21.3836 120.009 21.9754C119.102 22.5672 118.648 23.5338 118.648 24.8751V31H113.736V16.2056H118.648V18.9574ZM131.762 31.4142C129.572 31.4142 127.708 30.6647 126.17 29.1655C124.631 27.6466 123.862 25.7924 123.862 23.6028C123.862 21.4132 124.631 19.5689 126.17 18.0697C127.708 16.5508 129.572 15.7913 131.762 15.7913C133.971 15.7913 135.835 16.5508 137.354 18.0697C138.893 19.5689 139.662 21.4132 139.662 23.6028C139.662 25.7924 138.893 27.6466 137.354 29.1655C135.835 30.6647 133.971 31.4142 131.762 31.4142ZM131.762 26.68C132.63 26.68 133.34 26.394 133.892 25.822C134.464 25.2499 134.75 24.5102 134.75 23.6028C134.75 22.6954 134.464 21.9557 133.892 21.3836C133.34 20.8116 132.63 20.5256 131.762 20.5256C130.914 20.5256 130.204 20.8116 129.632 21.3836C129.079 21.9557 128.803 22.6954 128.803 23.6028C128.803 24.5102 129.079 25.2499 129.632 25.822C130.204 26.394 130.914 26.68 131.762 26.68ZM146.18 20.5256C146.18 20.8017 146.427 21.0286 146.92 21.2061C147.433 21.3836 148.044 21.5513 148.755 21.7091C149.484 21.8669 150.204 22.0938 150.914 22.3897C151.644 22.6658 152.256 23.1491 152.749 23.8395C153.262 24.5299 153.518 25.3979 153.518 26.4433C153.518 28.1397 152.887 29.3923 151.625 30.2011C150.362 31.0099 148.863 31.4142 147.127 31.4142C143.813 31.4142 141.604 30.2406 140.499 27.8932L144.79 25.7332C145.164 26.8181 145.934 27.3606 147.098 27.3606C147.985 27.3606 148.429 27.0943 148.429 26.5617C148.429 26.2855 148.182 26.0587 147.689 25.8811C147.196 25.7036 146.595 25.5261 145.884 25.3485C145.174 25.171 144.464 24.9343 143.754 24.6384C143.044 24.3425 142.442 23.8691 141.949 23.2181C141.456 22.5475 141.209 21.7288 141.209 20.7623C141.209 19.1842 141.791 17.9612 142.955 17.0933C144.119 16.2253 145.519 15.7913 147.157 15.7913C150.076 15.7913 152.108 16.9354 153.252 19.2237L149.11 21.0877C148.676 20.2395 148.064 19.8154 147.275 19.8154C146.545 19.8154 146.18 20.0521 146.18 20.5256Z" fill="url(#paint1_linear_61_439)"/>
</svg>
