<svg width="25" height="39" viewBox="0 0 25 39" fill="none" xmlns="http://www.w3.org/2000/svg">
<mask id="path-1-inside-1_61_395" fill="white">
<path d="M15.4277 0.429677C18.3221 -0.188392 21.3197 -0.138908 24.1924 0.573231L24.1699 0.661122C20.0442 1.76381 16.3932 4.19106 13.7793 7.57128C11.1386 10.9862 9.70556 15.1812 9.70508 19.498C9.70465 23.8147 11.1366 28.0094 13.7764 31.4248C16.3883 34.8041 20.037 37.2306 24.1602 38.335L24.1836 38.4297C21.3106 39.1405 18.313 39.1877 15.4189 38.5683C12.5248 37.9489 9.80894 36.6781 7.47852 34.8535C5.14827 33.029 3.26348 30.6979 1.96777 28.0371C0.672061 25.3762 -0.000693713 22.4548 5.36777e-07 19.4951C0.000741909 16.5355 0.674695 13.6144 1.97168 10.9541C3.26871 8.29378 5.15511 5.96405 7.48633 4.14061C9.81759 2.31717 12.5333 1.04778 15.4277 0.429677Z"/>
</mask>
<path d="M15.4277 0.429677L15.3233 -0.0592991L15.3233 -0.059298L15.4277 0.429677ZM24.1924 0.573231L24.6768 0.697031L24.8015 0.209098L24.3127 0.0879212L24.1924 0.573231ZM24.1699 0.661122L24.299 1.14417L24.5819 1.06857L24.6544 0.784921L24.1699 0.661122ZM13.7793 7.57128L13.3838 7.26541L13.3838 7.26542L13.7793 7.57128ZM9.70508 19.498L9.20508 19.498L9.20508 19.498L9.70508 19.498ZM13.7764 31.4248L13.3808 31.7306L13.3808 31.7306L13.7764 31.4248ZM24.1602 38.335L24.6455 38.2149L24.5746 37.9283L24.2895 37.852L24.1602 38.335ZM24.1836 38.4297L24.3037 38.915L24.7891 38.795L24.669 38.3096L24.1836 38.4297ZM15.4189 38.5683L15.3143 39.0573L15.3143 39.0573L15.4189 38.5683ZM7.47852 34.8535L7.17027 35.2472L7.17028 35.2472L7.47852 34.8535ZM1.96777 28.0371L1.51824 28.256L1.51824 28.256L1.96777 28.0371ZM5.36777e-07 19.4951L-0.499999 19.495L-0.499999 19.495L5.36777e-07 19.4951ZM1.97168 10.9541L1.52225 10.735L1.52225 10.735L1.97168 10.9541ZM7.48633 4.14061L7.17828 3.74678L7.17828 3.74678L7.48633 4.14061ZM15.4277 0.429677L15.5322 0.918653C18.3523 0.316446 21.273 0.364646 24.0721 1.05854L24.1924 0.573231L24.3127 0.0879212C21.3664 -0.642462 18.292 -0.69323 15.3233 -0.0592991L15.4277 0.429677ZM24.1924 0.573231L23.708 0.449432L23.6855 0.537323L24.1699 0.661122L24.6544 0.784921L24.6768 0.697031L24.1924 0.573231ZM24.1699 0.661122L24.0408 0.178077C19.8093 1.30905 16.0647 3.79854 13.3838 7.26541L13.7793 7.57128L14.1748 7.87714C16.7217 4.58359 20.2791 2.21858 24.299 1.14417L24.1699 0.661122ZM13.7793 7.57128L13.3838 7.26542C10.6754 10.7679 9.20558 15.0705 9.20508 19.498L9.70508 19.498L10.2051 19.4981C10.2056 15.292 11.6019 11.2045 14.1748 7.87714L13.7793 7.57128ZM9.70508 19.498L9.20508 19.498C9.20463 23.9253 10.6733 28.2276 13.3808 31.7306L13.7764 31.4248L14.172 31.119C11.5999 27.7912 10.2047 23.704 10.2051 19.4981L9.70508 19.498ZM13.7764 31.4248L13.3808 31.7306C16.0597 35.1966 19.8019 37.6853 24.0308 38.8179L24.1602 38.335L24.2895 37.852C20.272 36.7759 16.7169 34.4116 14.172 31.119L13.7764 31.4248ZM24.1602 38.335L23.6748 38.455L23.6982 38.5498L24.1836 38.4297L24.669 38.3096L24.6455 38.2149L24.1602 38.335ZM24.1836 38.4297L24.0635 37.9443C21.2642 38.6369 18.3435 38.6829 15.5236 38.0794L15.4189 38.5683L15.3143 39.0573C18.2826 39.6925 21.357 39.6441 24.3037 38.915L24.1836 38.4297ZM15.4189 38.5683L15.5236 38.0794C12.7037 37.4758 10.0574 36.2376 7.78675 34.4598L7.47852 34.8535L7.17028 35.2472C9.56043 37.1185 12.3459 38.4219 15.3143 39.0573L15.4189 38.5683ZM7.47852 34.8535L7.78676 34.4598C5.51624 32.6821 3.67978 30.4108 2.41731 27.8182L1.96777 28.0371L1.51824 28.256C2.84719 30.9851 4.78031 33.3759 7.17027 35.2472L7.47852 34.8535ZM1.96777 28.0371L2.41731 27.8182C1.15484 25.2255 0.499324 22.379 0.500001 19.4952L5.36777e-07 19.4951L-0.499999 19.495C-0.500711 22.5305 0.189282 25.5268 1.51824 28.256L1.96777 28.0371ZM5.36777e-07 19.4951L0.500001 19.4952C0.500723 16.6114 1.15741 13.7652 2.42111 11.1732L1.97168 10.9541L1.52225 10.735C0.191978 13.4635 -0.499239 16.4595 -0.499999 19.495L5.36777e-07 19.4951ZM1.97168 10.9541L2.42111 11.1732C3.68483 8.58121 5.52285 6.3112 7.79438 4.53445L7.48633 4.14061L7.17828 3.74678C4.78737 5.61691 2.85258 8.00636 1.52225 10.735L1.97168 10.9541ZM7.48633 4.14061L7.79438 4.53445C10.0659 2.75772 12.712 1.5209 15.5322 0.918651L15.4277 0.429677L15.3233 -0.059298C12.3546 0.574669 9.56927 1.87661 7.17828 3.74678L7.48633 4.14061Z" fill="#D7D0C4" mask="url(#path-1-inside-1_61_395)"/>
</svg>
