<svg width="241" height="284" viewBox="0 0 241 284" fill="none" xmlns="http://www.w3.org/2000/svg">
<path d="M231 126.473V157.517H184.159C185.896 175.244 190.222 192.17 197.138 208.303C204.044 224.437 213.283 239.265 224.854 252.787L201.054 273.229C186.82 257.044 175.66 239.111 167.572 219.44C159.484 199.779 154.572 179.131 152.825 157.517H88.1746C86.4276 179.131 81.4435 199.851 73.2016 219.676C64.9597 239.501 53.7168 257.609 39.4836 274L15.6827 253.095C27.4598 239.676 36.8218 224.817 43.7894 208.53C50.7467 192.242 55.104 175.244 56.8408 157.517H10V126.473H56.8408C55.104 108.653 50.7467 91.6247 43.7894 75.3779C36.8218 59.1414 27.4598 44.3136 15.6827 30.8946L39.0316 10C53.4601 26.3907 64.826 44.4987 73.1193 64.3136C81.4126 84.1388 86.4276 104.859 88.1746 126.473H152.825C154.572 104.859 159.557 84.1388 167.798 64.3136C176.04 44.4987 187.386 26.3907 201.814 10L225.317 30.8946C213.54 44.3136 204.178 59.1414 197.21 75.3779C190.253 91.6247 185.896 108.653 184.159 126.473H231Z" fill="black"/>
</svg>
