<svg width="325" height="309" viewBox="0 0 325 309" fill="none" xmlns="http://www.w3.org/2000/svg">
<path d="M230.648 199.077C230.648 189.644 228.849 180.787 225.271 172.486C221.682 164.185 216.788 156.933 210.598 150.73C204.398 144.527 197.15 139.641 188.852 136.051C180.555 132.461 171.692 130.671 162.274 130.671C152.845 130.671 144.013 132.461 135.767 136.051C127.521 139.641 120.324 144.527 114.175 150.73C108.027 156.933 103.164 164.185 99.5753 172.486C95.9972 180.787 94.1979 189.644 94.1979 199.077C94.1979 208.51 95.9972 217.397 99.5753 225.75C103.164 234.102 108.027 241.375 114.175 247.578C120.324 253.781 127.521 258.667 135.767 262.257C144.013 265.847 152.845 267.637 162.274 267.637C171.692 267.637 180.555 265.847 188.852 262.257C197.15 258.667 204.398 253.781 210.598 247.578C216.788 241.375 221.682 234.102 225.271 225.75C228.849 217.397 230.648 208.51 230.648 199.077ZM232.951 45.9721C237.043 37.6709 242.071 31.1287 248.004 26.366C253.946 21.6034 260.476 17.9927 267.601 15.5342C274.716 13.0757 282.293 11.5327 290.344 10.9155C298.384 10.3086 306.6 10 315 10V41.3534C305.479 41.3534 297.613 41.7134 291.413 42.4335C285.214 43.1536 280.145 44.2748 276.207 45.8178C272.258 47.3505 269.184 49.2946 266.984 51.6502C264.784 54.0161 262.912 56.7833 261.38 59.9515C258.512 64.9817 255.694 70.0015 252.929 75.0213C250.163 80.0411 247.14 84.9684 243.86 89.7825C240.58 94.5966 236.817 99.2049 232.571 103.618C228.314 108.02 223.266 112.125 217.436 115.91C224.191 120.426 230.36 125.651 235.943 131.587C241.526 137.532 246.266 144.075 250.163 151.193C254.049 158.311 257.072 165.903 259.221 173.947C261.38 181.991 262.45 190.364 262.45 199.077C262.45 212.912 259.817 225.873 254.543 237.97C249.258 250.057 242.092 260.642 233.023 269.714C223.965 278.777 213.364 285.926 201.221 291.151C189.078 296.387 176.103 299 162.274 299C148.548 299 135.634 296.387 123.552 291.151C111.461 285.926 100.881 278.777 91.8227 269.714C82.7542 260.642 75.6083 250.057 70.3851 237.97C65.162 225.873 62.5504 212.912 62.5504 199.077C62.5504 190.364 63.5992 181.991 65.6967 173.947C67.7941 165.903 70.817 158.311 74.7652 151.193C78.7032 144.075 83.443 137.532 88.9746 131.587C94.5063 125.651 100.655 120.426 107.42 115.91C101.58 112.125 96.429 107.948 91.9769 103.381C87.5146 98.8242 83.5767 94.0822 80.1426 89.1653C76.7085 84.2483 73.665 79.2799 71.002 74.2498C68.339 69.23 65.8817 64.4673 63.6299 59.9515C61.9849 56.7833 60.0622 54.0161 57.8619 51.6502C55.6616 49.2946 52.5873 47.3505 48.6391 45.8178C44.7011 44.2748 39.6527 43.1536 33.5042 42.4335C27.366 41.7134 19.5312 41.3534 10 41.3534V10C18.5031 10 26.7696 10.3086 34.81 10.9155C42.8504 11.5327 50.4075 13.0757 57.4814 15.5342C64.545 17.9927 71.002 21.6034 76.8421 26.366C82.6822 31.1287 87.6997 37.6709 91.8947 45.9721C95.0718 52.3189 98.4545 58.6758 102.043 65.0329C105.621 71.3797 110.052 77.0992 115.327 82.1704C120.602 87.2417 127.007 91.3665 134.533 94.545C142.07 97.7236 151.313 99.3078 162.274 99.3078C173.337 99.3078 182.652 97.7442 190.23 94.6171C197.818 91.5003 204.244 87.396 209.519 82.3247C214.793 77.2535 219.245 71.534 222.885 65.1872C226.525 58.8302 229.877 52.4218 232.951 45.9721Z" fill="black"/>
</svg>
