<svg width="325" height="307" viewBox="0 0 325 307" fill="none" xmlns="http://www.w3.org/2000/svg">
<path d="M232.405 76.3258C232.405 87.7148 232.94 98.5682 234.021 108.876C235.091 119.184 236.604 128.987 238.559 138.265C240.505 147.553 242.759 156.296 245.322 164.503C247.884 172.72 250.653 180.412 253.627 187.59C256.602 180.412 259.37 172.761 261.933 164.657C264.496 156.553 266.729 147.945 268.623 138.811C270.517 129.677 272.009 120.008 273.09 109.803C274.16 99.598 274.695 88.796 274.695 77.407V62.6302C274.49 59.1497 273.749 56.0913 272.472 53.4757C271.186 50.8602 269.57 48.7081 267.625 47.0193C265.68 45.3202 263.498 44.0433 261.089 43.168C258.681 42.2928 256.242 41.8603 253.782 41.8603C251.219 41.8603 248.656 42.3442 246.093 43.3225C243.531 44.3008 241.246 45.6807 239.249 47.4724C237.252 49.2745 235.606 51.4576 234.329 54.0113C233.043 56.5857 232.405 59.4586 232.405 62.6302V76.3258ZM306.231 62.1771C306.334 64.7411 306.406 67.2538 306.457 69.7149C306.509 72.176 306.54 74.637 306.54 77.0981C306.54 91.772 305.665 105.9 303.925 119.493C302.176 133.085 299.767 146.019 296.69 158.273C293.623 170.537 289.949 182.101 285.698 192.975C281.437 203.849 276.805 213.807 271.783 222.828C276.703 230.427 281.519 237.069 286.233 242.753C290.947 248.448 295.28 253.246 299.232 257.149C303.174 261.041 306.509 264.1 309.226 266.303C311.943 268.507 313.713 269.918 314.537 270.536C314.64 270.639 314.743 270.69 314.846 270.69L315 270.844L297.616 297C297.102 296.691 295.537 295.569 292.923 293.622C290.309 291.666 286.974 288.844 282.929 285.158C278.874 281.461 274.315 276.869 269.241 271.38C264.167 265.891 258.856 259.404 253.319 251.918C247.884 259.404 242.584 265.943 237.407 271.534C232.22 277.126 227.578 281.822 223.481 285.611C218.665 290.029 214.095 293.818 209.793 297L191.956 270.844C192.461 270.536 194.025 269.382 196.639 267.385C199.253 265.377 202.568 262.432 206.561 258.529C210.565 254.636 215.052 249.714 220.023 243.762C224.994 237.81 230.048 230.829 235.173 222.828C230.449 214.116 226.024 204.519 221.866 194.056C217.718 183.584 214.074 172.226 210.945 159.972C207.817 147.708 205.357 134.548 203.566 120.492C201.765 106.446 200.869 91.4115 200.869 75.4093C200.869 73.3601 200.869 71.28 200.869 69.1691C200.869 67.0684 200.921 64.9986 201.024 62.9391V62.6302C200.818 59.2526 200.108 56.2457 198.873 53.6302C197.638 51.0146 196.032 48.8111 194.025 47.0193C192.028 45.2173 189.774 43.8889 187.263 43.0136C184.752 42.1383 182.21 41.7059 179.647 41.7059C177.187 41.7059 174.748 42.1383 172.339 43.0136C169.931 43.8889 167.749 45.1658 165.804 46.8649C163.859 48.5536 162.243 50.7367 160.956 53.4037C159.68 56.0708 158.929 59.1497 158.733 62.6302V252.227H127.661V62.6302C127.661 59.2526 127.064 56.2457 125.891 53.6302C124.707 51.0146 123.122 48.8419 121.125 47.0913C119.118 45.351 116.864 44.0433 114.353 43.168C111.842 42.2928 109.299 41.8603 106.737 41.8603C104.174 41.8603 101.663 42.2928 99.2027 43.168C96.7428 44.0433 94.5404 45.3202 92.5952 47.0193C90.6396 48.7081 89.0031 50.8602 87.6651 53.4757C86.3374 56.0913 85.5655 59.1497 85.3596 62.6302V252.227H52.7539V62.6302C52.7539 59.6645 52.1879 56.8946 51.066 54.3202C49.9339 51.7562 48.4208 49.5524 46.5271 47.7092C44.623 45.8556 42.4513 44.3934 39.9915 43.3225C37.5317 42.2413 34.9586 41.7059 32.3032 41.7059C30.8623 41.7059 29.4214 41.8603 27.9908 42.1693C26.5499 42.4782 25.1193 42.9929 23.6887 43.7034L10 15.2415C17.4825 11.7506 25.0163 10 32.6017 10C39.2711 10 45.7551 11.2872 52.0643 13.8513C58.3734 16.4153 64.1371 20.3181 69.3656 25.5491C74.594 20.3181 80.3679 16.4461 86.6668 13.9336C92.9759 11.421 99.4601 10.1545 106.129 10.1545C112.891 10.1545 119.458 11.4417 125.818 14.0058C132.169 16.5698 137.963 20.421 143.192 25.5491C148.42 20.3181 154.194 16.4461 160.493 13.9336C166.802 11.421 173.235 10.1545 179.801 10.1545C186.563 10.1545 193.13 11.4417 199.49 14.0058C205.841 16.5698 211.532 20.421 216.565 25.5491C221.999 20.2151 227.887 16.3124 234.247 13.8513C240.608 11.3902 247.02 10.1545 253.473 10.1545C260.142 10.1545 266.626 11.3902 272.936 13.8513C279.234 16.3124 284.823 19.834 289.702 24.3957C294.57 28.9575 298.512 34.446 301.538 40.8614C304.564 47.2767 306.128 54.3716 306.231 62.1771Z" fill="black"/>
</svg>
