<svg width="325" height="265" viewBox="0 0 325 265" fill="none" xmlns="http://www.w3.org/2000/svg">
<path d="M230.979 10C238.673 10 246.084 10.9946 253.215 12.9939C260.344 14.983 267.038 17.8126 273.297 21.4933C279.553 25.1741 285.223 29.5622 290.301 34.6681C295.379 39.7843 299.765 45.4438 303.459 51.6775C307.151 57.9112 309.999 64.5961 311.999 71.7525C314 78.8987 315 86.3011 315 93.9701C315 101.731 314 109.185 311.999 116.342C309.999 123.488 307.151 130.152 303.459 136.335C299.765 142.517 295.379 148.125 290.301 153.19C285.223 158.245 279.553 162.582 273.297 166.211C267.038 169.841 260.344 172.64 253.215 174.639C246.084 176.628 238.673 177.622 230.979 177.622V146.372C238.261 146.372 245.11 144.988 251.522 142.23C257.933 139.472 263.526 135.719 268.295 130.972C273.066 126.215 276.81 120.648 279.53 114.271C282.246 107.883 283.608 101.116 283.608 93.9701C283.608 86.7112 282.246 79.924 279.53 73.5878C276.81 67.2516 273.066 61.7149 268.295 56.9679C263.526 52.2106 257.933 48.4582 251.522 45.7003C245.11 42.9423 238.261 41.5683 230.979 41.5683C223.693 41.5683 216.846 42.9423 210.435 45.7003C204.022 48.4582 198.405 52.2106 193.585 56.9679C188.762 61.7149 184.967 67.2516 182.197 73.5878C179.427 79.924 178.042 86.7112 178.042 93.9701V255H146.958V93.9701C146.958 86.7112 145.573 79.924 142.803 73.5878C140.033 67.2516 136.263 61.7149 131.492 56.9679C126.721 52.2106 121.129 48.4582 114.719 45.7003C108.306 42.9423 101.508 41.5683 94.329 41.5683C87.0437 41.5683 80.2217 42.9423 73.8621 45.7003C67.5004 48.4582 61.9357 52.2106 57.1659 56.9679C52.3952 61.7149 48.6253 67.2516 45.8554 73.5878C43.0854 79.924 41.7004 86.7112 41.7004 93.9701C41.7004 101.116 43.0854 107.883 45.8554 114.271C48.6253 120.648 52.3427 126.215 57.0115 130.972C61.6782 135.719 67.1678 139.472 73.478 142.23C79.7871 144.988 86.4804 146.372 93.5598 146.372V177.622C82.172 177.622 71.4 175.459 61.2437 171.112C51.0874 166.775 42.2121 160.818 34.622 153.262C27.0287 145.706 21.0274 136.847 16.6171 126.676C12.2047 116.516 10 105.607 10 93.9701C10 82.4255 12.2047 71.5475 16.6171 61.3357C21.0274 51.1137 27.0545 42.204 34.6982 34.5964C42.3398 26.9889 51.2913 20.9808 61.5516 16.5926C71.8088 12.2044 82.7353 10 94.329 10C101.304 10 108.075 10.8409 114.642 12.5326C121.206 14.214 127.414 16.5927 133.262 19.6582C139.109 22.7238 144.496 26.4455 149.42 30.8439C154.344 35.2321 158.703 40.0817 162.501 45.3927C166.397 40.0817 170.834 35.2321 175.811 30.8439C180.785 26.4455 186.198 22.7238 192.046 19.6582C197.894 16.5927 204.099 14.214 210.666 12.5326C217.23 10.8409 224.001 10 230.979 10Z" fill="black"/>
</svg>
